<?xml version="1.0" encoding="iso-8859-1"?>
<!-- Generator: Adobe Illustrator 19.0.0, SVG Export Plug-In . SVG Version: 6.00 Build 0)  -->
<svg version="1.1" id="Layer_1" xmlns="http://www.w3.org/2000/svg" xmlns:xlink="http://www.w3.org/1999/xlink" x="0px" y="0px"
	 viewBox="0 0 512 512" style="enable-background:new 0 0 512 512;" xml:space="preserve">
<g>
	<g>
		<path d="M464.372,401.604h-68.317v-7.477c0-4.662-3.779-8.44-8.44-8.44c-4.661,0-8.44,3.778-8.44,8.44v7.477H127.737v-35.689
			h86.807c0,0,4.373,3.24,6.819,3.215c2.44-0.048,4.738-1.149,6.306-3.019l16.642-19.867l39.121,43.181
			c1.601,1.768,3.874,2.774,6.254,2.774c0.055,0,0.11,0,0.164-0.001c2.44-0.048,4.739-1.149,6.306-3.019l19.489-23.265h68.582
			c16.241,0,29.454-13.213,29.454-29.454c0-16.241-13.213-29.454-29.454-29.454h-9.618v-15.644
			c12.1-1.692,21.445-12.104,21.445-24.665v-13.128c0-50.935-41.439-92.375-92.375-92.375h-22.562V87.22
			c0-7.867-6.401-14.267-14.267-14.267h-4.956V58.733c9.377-3.585,16.057-12.672,16.057-23.294
			c0-11.196-13.097-26.612-18.727-32.719C257.627,0.986,255.378,0,253.02,0c-2.357,0-4.607,0.986-6.205,2.719
			c-5.631,6.109-18.728,21.524-18.728,32.721c0,10.949,7.097,20.265,16.93,23.607v13.907h-5.828
			c-7.867,0-14.267,6.401-14.267,14.267v73.975h-21.688c-14.939,0-29.784,3.651-42.926,10.561c-4.126,2.17-5.712,7.272-3.544,11.398
			c2.168,4.124,7.272,5.71,11.397,3.542c10.731-5.641,22.858-8.622,35.071-8.622H303.68c41.628,0,75.495,33.867,75.495,75.495
			v13.128c0,4.429-3.603,8.032-8.032,8.032h-4.973H139.869h-4.099c-4.43,0-8.033-3.603-8.033-8.032v-13.128
			c0-7.076,0.977-14.079,2.903-20.812c1.283-4.481-1.311-9.154-5.792-10.436c-4.477-1.282-9.153,1.311-10.436,5.792
			c-2.359,8.245-3.555,16.809-3.555,25.456v13.128c0,12.255,8.899,22.464,20.572,24.524v15.783h-9.618
			c-16.241,0-29.453,13.213-29.453,29.454c0,12.37,7.669,22.976,18.498,27.333v37.811H47.628c-15.264,0-27.684,12.419-27.684,27.684
			s12.42,27.685,27.684,27.685h9.299C61.07,487.991,87.683,512,119.816,512h274.066c32.133,0,58.747-24.01,62.889-55.027h7.6
			c15.264,0,27.684-12.42,27.684-27.685S479.636,401.604,464.372,401.604z M244.964,35.463c0.113-2.26,3.511-7.957,8.058-13.898
			c4.539,5.928,7.93,11.615,8.05,13.89c-0.008,4.434-3.618,8.039-8.054,8.039C248.579,43.494,244.966,39.881,244.964,35.463z
			 M264.239,161.197H241.8V89.834h22.439V161.197z M289.437,370.915l-39.121-43.181c-1.601-1.768-3.874-2.774-6.254-2.774
			c-0.055,0-0.11,0-0.164,0.001c-2.44,0.048-4.739,1.149-6.306,3.019l-16.642,19.867l-21.638-23.884l129.182,0.326L289.437,370.915z
			 M384.228,323.886c6.933,0,12.574,5.641,12.574,12.575c0,6.934-5.641,12.575-12.575,12.575h-54.443l21.067-25.15H384.228z
			 M148.308,291.61H357.73v15.397H180.242h-0.034h-31.9V291.61z M109.238,336.461c0-6.934,5.641-12.575,12.574-12.575h54.655
			l22.784,25.15h-77.44C114.878,349.036,109.238,343.395,109.238,336.461z M393.883,495.121H119.816
			c-22.808,0-41.841-16.474-45.822-38.148h365.709C435.722,478.647,416.691,495.121,393.883,495.121z M464.372,440.094h-15.462
			H64.79h-17.16c-5.957,0-10.805-4.848-10.805-10.806c0-5.957,4.848-10.805,10.805-10.805h71.668h268.317h76.757
			c5.957,0,10.805,4.848,10.805,10.805C475.177,435.246,470.329,440.094,464.372,440.094z"/>
	</g>
</g>
<g>
	<g>
		<circle cx="182.204" cy="208.287" r="7.718"/>
	</g>
</g>
<g>
	<g>
		<circle cx="160.16" cy="234.124" r="7.718"/>
	</g>
</g>
<g>
	<g>
		<circle cx="202.931" cy="234.124" r="7.718"/>
	</g>
</g>
<g>
</g>
<g>
</g>
<g>
</g>
<g>
</g>
<g>
</g>
<g>
</g>
<g>
</g>
<g>
</g>
<g>
</g>
<g>
</g>
<g>
</g>
<g>
</g>
<g>
</g>
<g>
</g>
<g>
</g>
</svg>
